<svg width="794" xmlns="http://www.w3.org/2000/svg" height="314" fill="none"><defs><clipPath id="a" class="frame-clip frame-clip-def"><rect rx="0" ry="0" width="794" height="314" transform="matrix(1.000000, 0.000000, 0.000000, 1.000000, 0.000000, 0.000000)"/></clipPath></defs><g clip-path="url(#a)"><g class="fills"><rect rx="0" ry="0" width="794" height="314" transform="matrix(1.000000, 0.000000, 0.000000, 1.000000, 0.000000, 0.000000)" class="frame-background"/></g><g class="frame-children"><rect rx="0" ry="0" x="36.5" y="33.5" transform="matrix(1.000000, 0.000000, 0.000000, 1.000000, 0.000000, 0.000000)" width="40" height="246" style="fill: rgb(28, 28, 28);" class="fills"/><rect rx="0" ry="0" x="444.5" y="33.5" transform="matrix(1.000000, 0.000000, 0.000000, 1.000000, 0.000000, 0.000000)" width="40" height="32" style="fill: rgb(28, 28, 28);" class="fills"/><rect rx="0" ry="0" x="649.5" y="246.5" transform="matrix(1.000000, 0.000000, 0.000000, 1.000000, 0.000000, 0.000000)" width="40" height="32" style="fill: rgb(28, 28, 28);" class="fills"/><rect rx="0" ry="0" x="376.5" y="246.5" transform="matrix(1.000000, 0.000000, 0.000000, 1.000000, 0.000000, 0.000000)" width="40" height="32" style="fill: rgb(28, 28, 28);" class="fills"/><rect rx="0" ry="0" x="717.5" y="33.5" transform="matrix(1.000000, 0.000000, 0.000000, 1.000000, 0.000000, 0.000000)" width="40" height="246" style="fill: rgb(28, 28, 28);" class="fills"/><rect rx="0" ry="0" x="514.5" y="33.5" transform="matrix(1.000000, 0.000000, 0.000000, 1.000000, 0.000000, 0.000000)" width="40" height="246" style="fill: rgb(28, 28, 28);" class="fills"/><rect rx="0" ry="0" x="103.5" y="33.5" transform="matrix(1.000000, 0.000000, 0.000000, 1.000000, 0.000000, 0.000000)" width="40" height="117" style="fill: rgb(28, 28, 28);" class="fills"/><rect rx="0" ry="0" x="649.5" y="33.5" transform="matrix(1.000000, 0.000000, 0.000000, 1.000000, 0.000000, 0.000000)" width="40" height="117" style="fill: rgb(28, 28, 28);" class="fills"/><rect rx="0" ry="0" x="581.5" y="33.5" transform="matrix(1.000000, 0.000000, 0.000000, 1.000000, 0.000000, 0.000000)" width="40" height="105" style="fill: rgb(28, 28, 28);" class="fills"/><rect rx="0" ry="0" x="581.5" y="174.5" transform="matrix(1.000000, 0.000000, 0.000000, 1.000000, 0.000000, 0.000000)" width="40" height="105" style="fill: rgb(28, 28, 28);" class="fills"/><rect rx="0" ry="0" x="171.5" y="33.5" transform="matrix(1.000000, 0.000000, 0.000000, 1.000000, 0.000000, 0.000000)" width="40" height="246" style="fill: rgb(28, 28, 28);" class="fills"/><rect rx="0" ry="0" x="376.5" y="33.5" transform="matrix(1.000000, 0.000000, 0.000000, 1.000000, 0.000000, 0.000000)" width="40" height="117" style="fill: rgb(28, 28, 28);" class="fills"/><rect rx="0" ry="0" x="240.5" y="33.5" transform="matrix(1.000000, 0.000000, 0.000000, 1.000000, 0.000000, 0.000000)" width="40" height="246" style="fill: rgb(28, 28, 28);" class="fills"/><rect rx="0" ry="0" x="444.5" y="166.5" transform="matrix(1.000000, 0.000000, 0.000000, 1.000000, 0.000000, 0.000000)" width="40" height="114" style="fill: rgb(28, 28, 28);" class="fills"/><rect rx="0" ry="0" x="308.5" y="66.5" transform="matrix(1.000000, 0.000000, 0.000000, 1.000000, 0.000000, 0.000000)" width="40" height="212" style="fill: rgb(28, 28, 28);" class="fills"/></g></g></svg>